# xmcd CD database file
#
# Track frame offsets:
#	150
#	13205
#	29676
#	44602
#	59920
#	72608
#	88035
#	105244
#	123713
#	136173
#	148982
#	164870
#	178237
#	193293
#	207773
#	224711
#	240154
#
# Disc length: 3341 seconds
#
# Revision: 1
# Processed by: cddbd v1.5.2PL0 Copyright (c) Steve Scherf et al.
# Submitted via: CDex 1.51
#
DISCID=1e0d0b11
DTITLE=Anett Lousian - Unausgesprochen
DYEAR=2006
DGENRE=Chanson
TTITLE0=Das Grosse Erwachen
TTITLE1=Torsten Schmidt
TTITLE2=Chancenlos
TTITLE3=Gedacht Ich Sage Nein
TTITLE4=Eve
TTITLE5=Läuft Alles Perfekt
TTITLE6=Wo Ist Das Problem
TTITLE7=Er Gehoerte Mal Mir
TTITLE8=Die Lösung
TTITLE9=Der Den Ich Will
TTITLE10=Vielleicht
TTITLE11=Widder Wider Willen
TTITLE12=Beerdigung
TTITLE13=Ausgesprochen Unausgesprochen
TTITLE14=Was Hast Du Vor
TTITLE15=Wer Bin Ich Wirklich
TTITLE16=Fettnäpfchenwetthüpfen
EXTD=YEAR: 2006
EXTT0=
EXTT1=
EXTT2=
EXTT3=
EXTT4=
EXTT5=
EXTT6=
EXTT7=
EXTT8=
EXTT9=
EXTT10=
EXTT11=
EXTT12=
EXTT13=
EXTT14=
EXTT15=
EXTT16=
PLAYORDER=
